<?xml version="1.0" encoding="UTF-8"?> <!-- Generator: Adobe Illustrator 23.1.0, SVG Export Plug-In . SVG Version: 6.00 Build 0) --> <svg xmlns="http://www.w3.org/2000/svg" xmlns:xlink="http://www.w3.org/1999/xlink" id="Layer_1" x="0px" y="0px" viewBox="0 0 960 204" style="enable-background:new 0 0 960 204;" xml:space="preserve"> <style type="text/css"> .st0{fill:#FFFFFF;} .st1{fill:#B5381F;} .st2{fill:#898585;} .st3{fill:#020101;} .st4{fill:#B6371F;} .st5{display:none;fill:#FFFFFF;stroke:#000000;stroke-width:1.015;stroke-miterlimit:10;} </style> <g> <path class="st0" d="M167.4,81.2c-0.1-2.8,3.4-2.4,5.3-2.6c0,1.8,0,3.6,0.1,5.4C170.8,83.9,167.3,84,167.4,81.2z"></path> <path class="st0" d="M62.8,86.6c0.6-2.7,1.3-5.3,2.4-7.8c0.8,2.6,1.6,5.2,2.4,7.7C66,86.5,64.4,86.5,62.8,86.6z"></path> <path class="st0" d="M127.8,78.6c1.8,0.2,4.8-0.1,5.1,2.4c0.6,3-2.9,3.5-5.1,3.5C127.8,82.5,127.8,80.5,127.8,78.6z"></path> <path class="st0" d="M786.6,79.3c1.8,0.1,4.6,0.1,4.5,2.6c0.4,2.7-2.6,3.1-4.5,2.9C786.6,83,786.6,81.2,786.6,79.3z"></path> <path class="st0" d="M840.5,80.6c3.9-2.3,9.1,2.2,7.5,6.3c-1,3.4-5.7,5.1-8.4,2.5C836.4,87.3,837.1,82.2,840.5,80.6z"></path> <path class="st0" d="M715.7,81.1c0.8,2.1,1.6,4.3,2.3,6.5c-1.5,0-3.1,0-4.6,0C714.2,85.4,714.9,83.2,715.7,81.1z"></path> <path class="st0" d="M177.4,111.6c1.9,0.1,5-0.1,5,2.6c0.4,2.9-2.9,3.2-5,3.4C177.4,115.5,177.3,113.5,177.4,111.6z"></path> <path class="st0" d="M134.4,112.2c2.6-1.8,6.8-0.6,7.3,2.7c0.8,3.3,0.6,8.8-3.6,9.4C131.6,125.3,130.7,115.6,134.4,112.2z"></path> <path class="st0" d="M200.9,111.8c1.1,2.5,1.8,5.1,2.6,7.7c-1.6,0-3.3,0-4.9,0C199.3,117,200.1,114.4,200.9,111.8z"></path> <path class="st0" d="M821.2,112.1c1.8,0.2,4.6,0.6,4.4,3.1c0.1,2.5-2.7,2.7-4.5,2.8C821,116,821,114.1,821.2,112.1z"></path> <path class="st0" d="M862.3,112.3c1.8,0.1,4.6,0.2,4.5,2.7c0.4,2.6-2.6,3-4.5,3C862.3,116.1,862.3,114.2,862.3,112.3z"></path> <path class="st0" d="M773.5,113.7c3.2-2,7.6,0.7,7.8,4.3c0.4,4-4.7,7.4-8.1,4.9C769.7,120.9,769.9,115.4,773.5,113.7z"></path> <path class="st0" d="M219.3,117.9c-0.5-2.9,2.3-4.3,4.7-4.5c0,2.8,0,5.7-0.1,8.5C221.9,121.3,219.2,120.5,219.3,117.9z"></path> <path class="st0" d="M227.6,113.4c2.4,0.2,5.2,1.8,4.6,4.6c0,2.5-2.6,3.4-4.7,3.8C227.6,119,227.6,116.2,227.6,113.4z"></path> <path class="st0" d="M843.4,114c0.8,2.2,1.5,4.3,2.3,6.5c-1.5,0-3.1,0-4.6,0C841.8,118.4,842.6,116.2,843.4,114z"></path> </g> <g> <path class="st1" d="M382.3,65.2c0.3-12.2-0.2-24.4,0.3-36.6c2.3,0.1,4.6,0.1,7,0c0.4,12.2-0.1,24.4,0.3,36.6 c-0.9,2.7-5,1.4-7.1,1.1C382.5,66.1,382.4,65.5,382.3,65.2z"></path> <path class="st1" d="M502.5,98.5c16.2-0.4,32.3,0,48.5-0.2c0.2,2.5,0.3,4.9,0.1,7.4c-16.2-0.2-32.4,0.2-48.5-0.2 C502.5,103.2,502.5,100.8,502.5,98.5z"></path> <path class="st1" d="M382.4,138.8c2.4,0,4.7,0,7.1,0c0.2,12.4-0.1,24.8,0.1,37.1c-2.5,0.1-4.9,0.1-7.4,0 C382.5,163.5,382.2,151.1,382.4,138.8z"></path> </g> <g> <path class="st2" d="M343.1,41.8c11.9,0,23.7-0.2,35.6,0.1c0,1.4,0,2.8,0,4.2c-10.4,0.3-20.7,0.1-31.1,0.1 c-0.3,34.3-0.2,68.5-0.1,102.8c10.4,0,20.7-0.2,31.1,0.1c0,1.4,0,2.8,0,4.2c-11.9,0.3-23.8,0.2-35.7,0.1 C343.2,116.1,343.1,78.9,343.1,41.8z"></path> <path class="st2" d="M393,41.8c61.3-0.1,122.6,0,183.9,0c8.6,0.1,17.3-0.2,25.9,0.1c0,17.7,0,35.4,0,53.1c-1.5,0-3,0-4.5,0 c0-16.2,0.2-32.5-0.1-48.7c-68.4,0.1-136.8,0.1-205.2,0C393,44.7,393,43.2,393,41.8z"></path> <path class="st2" d="M598.3,109.3c1.5,0,2.9-0.1,4.4-0.1c0.2,14.6-0.1,29.3,0.1,43.9c-15.6,0.5-31.3,0.1-46.9,0.2 c-54.3,0-108.6,0.1-162.9,0c0-1.5,0.1-3,0.1-4.5c68.4-0.1,136.8,0.3,205.1,0.2C598.3,135.8,598.3,122.6,598.3,109.3z"></path> </g> <g> <path class="st3" d="M356.6,66.6c7.9,0,15.8,0,23.7,0c0.4,0.1,1.2,0.4,1.6,0.5c0.1,0.4,0.4,1.2,0.5,1.6c0,23.3,0,46.7,0,70 c-8.6,0-17.2,0-25.7,0C356.5,114.8,356.6,90.7,356.6,66.6z"></path> <path class="st3" d="M390.1,67.2c0.4-0.1,1.2-0.4,1.6-0.5c15.4,0.1,30.7-0.1,46.1,0.1c-0.1,10.5,0,21.1,0,31.6 c-16.1,0-32.1,0-48.2,0c0-9.9,0-19.8,0-29.6C389.7,68.3,390,67.5,390.1,67.2z"></path> <path class="st3" d="M437.7,98.4c18.3-0.1,36.7,0,55-0.1c0,2.4,0,4.9,0,7.3c-18.3,0-36.6,0-55,0 C437.8,103.2,437.8,100.8,437.7,98.4z"></path> <path class="st3" d="M389.6,105.7c16,0,32,0,48,0c0.1,11.1,0.1,22.1,0.2,33.2c-16.1,0-32.1,0-48.2,0 C389.6,127.8,389.6,116.7,389.6,105.7z"></path> </g> <g> <path d="M39.2,75.3c4,0,8.1,0,12.1,0c0,1.1,0,2.2,0,3.3c-2.7,0-5.4,0-8.1,0.1c0.1,5.2,0,10.4,0.1,15.7c-1.3,0-2.7,0.1-4,0.2 C39.1,88.2,39.2,81.8,39.2,75.3z"></path> <g> <path d="M62.6,75.3c1.7,0,3.3,0,5,0c2.3,6.4,4.5,12.8,6.8,19.2c-1.5,0-3,0-4.4-0.1c-0.4-1.5-0.8-3-1.2-4.4c-2.4-0.1-4.8-0.1-7.2,0 c-0.4,1.5-0.8,2.9-1.2,4.4c-1.1,0-3.3,0-4.4,0C58,88.1,60.4,81.7,62.6,75.3z M62.8,86.6c1.6,0,3.2,0,4.8,0 c-0.8-2.6-1.6-5.2-2.4-7.7C64.2,81.3,63.4,83.9,62.8,86.6z"></path> </g> <path d="M84.2,75.4c3.9-0.2,7.8,0,11.7-0.1c0.1,6.4,0,12.8,0,19.2c-1.3,0-2.7,0-4.1,0c0-5.3,0.1-10.6-0.1-15.8 c-1.6,0-3.1,0.1-4.7,0.1c-0.7,4.6-0.7,9.5-2.6,13.9c-1.1,2.3-3.8,2.2-5.9,2.1c-0.1-1.1-0.1-2.2-0.2-3.3c0.7,0,2-0.1,2.6-0.2 C82.8,86.1,82.6,80.5,84.2,75.4z"></path> <path d="M104.7,75.5c3.7-0.2,7.4-0.1,11.1-0.1c0,1.1,0,2.2,0,3.3c-2.3,0-4.6,0-7,0c0,1.1,0,3.2,0,4.2c2.1,0,4.3,0,6.4,0 c0,0.8,0.1,2.5,0.1,3.3c-2.2,0-4.4,0-6.6,0.1c0,1.6,0,3.2,0.1,4.7c2.3,0.3,4.6,0.2,6.9,0.2c0,0.8,0.1,2.5,0.1,3.3 c-3.7,0.1-7.4,0.1-11.1,0C104.8,88.2,104.8,81.8,104.7,75.5z"></path> <g> <path d="M165,77c3.4-2.5,7.9-1.4,11.8-1.6c-0.1,6.4,0.2,12.8-0.1,19.3c-1,0-2.9-0.1-3.9-0.2c0-2.4,0-4.9,0-7.3c-0.6,0-1.9,0-2.5,0 c-1.5,2.4-3,4.8-4.4,7.3c-1.5,0-3.1,0.1-4.6,0.1c1.8-2.8,3.5-5.5,5.3-8.2C163.3,84.5,162,79.6,165,77z M167.4,81.2 c-0.1,2.9,3.3,2.7,5.3,2.8c0-1.8,0-3.6-0.1-5.4C170.8,78.8,167.3,78.3,167.4,81.2z"></path> </g> <g> <path d="M123.8,75.4c3.1,0.1,6.2-0.3,9.3,0.4c4.7,1.1,5.3,8.3,1.4,10.8c-2,1.3-4.4,1.1-6.7,1.3c0,2.3,0,4.5,0,6.8 c-1.4-0.1-2.7-0.1-4.1-0.2C123.8,88,123.8,81.7,123.8,75.4z M127.8,78.6c0,2,0,4,0,5.9c2.2,0,5.7-0.5,5.1-3.5 C132.7,78.4,129.7,78.7,127.8,78.6z"></path> </g> <path d="M144.7,75.4c3.7,0,7.3,0,11,0c0,0.8,0,2.5,0,3.3c-2.3,0-4.6,0-6.9,0c0,1.4,0,2.8-0.1,4.1c2.2,0,4.4,0.1,6.5,0.1 c0,0.8,0,2.5,0,3.3c-2.1,0-4.3,0-6.4,0c0,1.7-0.1,3.3-0.1,5c2.3,0,4.7,0,7,0c0,1.1,0,2.2-0.1,3.3c-3.7,0-7.3,0-11,0 C144.7,88.1,144.7,81.7,144.7,75.4z"></path> <path d="M682.9,87c-1.1-5.1,2.9-10.4,8-10.9c4.4-0.7,8.6,2.3,10.2,6.3c-1,0-3.2,0-4.2,0c-1.6-2-4.3-3.5-6.8-2.2 c-3.8,1.6-4.5,7.4-1.1,9.8c2.7,2.2,6.9,0.9,8.3-2.1c-1.6-0.1-3.2-0.1-4.8-0.1c0-0.8,0-2.3,0-3c3,0,6.1,0,9.1,0 c-0.1,4-2.4,8.1-6.4,9.4C690,96.2,683.7,92.5,682.9,87z"></path> <g> <path d="M714.1,76.2c1.1,0,2.3,0,3.4,0.1c2.4,6.1,4.9,12.1,7.3,18.2c-1,0-3.1,0.1-4.2,0.1c-0.5-1.3-1-2.5-1.5-3.8 c-2.3,0-4.7,0-7,0.1c-0.4,1.2-0.8,2.4-1.1,3.6c-1.5,0-2.9,0-4.4,0C709.1,88.4,711.6,82.3,714.1,76.2z M715.7,81.1 c-0.7,2.1-1.5,4.3-2.2,6.4c1.5,0,3,0,4.6,0C717.3,85.4,716.5,83.2,715.7,81.1z"></path> </g> <path d="M730.5,76.4c1.4-0.1,2.7-0.1,4.1-0.1c0,4.9,0,9.8,0,14.6c2.2,0,4.3,0,6.5,0c0,0.9,0,2.7,0,3.7c-3.5,0-7,0-10.6,0 C730.6,88.5,730.7,82.4,730.5,76.4z"></path> <path d="M764.9,76.3c3.5,0,7,0,10.5,0c0,1.2,0,2.4,0,3.6c-2.2,0-4.4,0-6.6,0c0,0.9,0,2.7,0,3.6c2,0,4,0,6.1-0.1 c0.1,1.2,0.2,2.4,0.3,3.7c-2.1,0-4.3,0-6.4,0.1c0,1.2,0,2.4,0.1,3.6c2.2,0,4.3,0,6.5,0c0,0.9,0,2.7,0,3.7c-3.5,0-7.1,0-10.6,0 C764.9,88.4,764.8,82.3,764.9,76.3z"></path> <g> <path d="M782.5,76.4c3.9,0.1,9.2-1.5,11.6,2.6c2.1,3.3,0.2,7.5-3.2,9c1.7,2.2,3.4,4.3,5.1,6.5c-1.7,0-3.4,0-5.1,0 c-1.4-2.2-2.9-4.3-4.4-6.5c0,2.2,0,4.3,0,6.5c-1,0-3,0-4,0C782.6,88.5,782.7,82.4,782.5,76.4z M786.6,79.3c0,1.8,0,3.7,0,5.6 c2,0.1,4.9-0.2,4.5-2.9C791.2,79.4,788.4,79.4,786.6,79.3z"></path> </g> <path d="M800.1,76.3c1.6,0,3.2,0,4.8,0c1.4,1.9,2.2,4.5,4.2,5.8c1.4-1.8,2.5-3.8,3.6-5.7c1.6-0.1,3.2-0.1,4.8-0.1 c-2,3.3-4.4,6.4-6.5,9.6c0,2.9,0,5.8,0,8.7c-1,0-3,0-4,0c0-2.8,0.1-5.7-0.1-8.6C804.8,82.5,802.3,79.5,800.1,76.3z"></path> <g> <path d="M839.5,76.7c5.3-2.4,11.9,1.7,12.6,7.3c0.9,4.9-3,10-8,10.6c-5.2,0.9-10.4-3.5-10.6-8.7C833.2,82,835.8,78.1,839.5,76.7z M840.5,80.6c-3.4,1.6-4,6.7-0.9,8.9c2.7,2.5,7.4,0.9,8.4-2.5C849.5,82.8,844.3,78.3,840.5,80.6z"></path> </g> <path d="M858.7,76.4c3.5-0.2,7.1-0.2,10.6-0.1c0,1.2,0,2.4,0.1,3.5c-2.2,0.1-4.4,0.1-6.6,0.1c0,0.9,0,2.7,0,3.6c2,0,4.1,0,6.1-0.1 c0,1.2,0.1,2.4,0.2,3.7c-2.1,0-4.2,0-6.3,0.1c0,2.4,0,4.8,0,7.3c-1,0-3,0-4,0C858.7,88.5,858.8,82.4,858.7,76.4z"></path> <path d="M747.7,76.3c1,0,3,0,4,0c0,4.8,0,9.7,0,14.5c2.2,0,4.4,0.1,6.6,0.1c0,0.9,0,2.7,0,3.6c-3.5,0-7,0-10.6,0 C747.7,88.4,747.7,82.3,747.7,76.3z"></path> <path d="M262,102.8c1.3,0,4,0,3.4,2c0.2,1.4-1.8,1.2-2.6,1.6c-0.1-1.8-1.9-1.6-3-2l0.1,1.8c-2,0.6-4.6-1.1-2.8-3.1 c0.7-0.1,2.1-0.3,2.7-0.5l-0.3,1.5c1,0,2,0,3,0.1L262,102.8z"></path> <path d="M41.2,110.2c3.2-3,7.9-2.3,11.7-1c-0.4,1.1-0.9,2.2-1.3,3.3c-2.4-0.9-5.7-2.1-7.6,0.3c-2,2.7-1.9,6.7-0.4,9.7 c2,2.9,5.9,1.5,8.7,0.9c0,0.9-0.1,2.6-0.1,3.5c-4,1-9.3,1.6-12-2.3C37.4,120.4,37.5,113.9,41.2,110.2z"></path> <path d="M60.3,108.3c1.4,0,2.7,0,4,0c0,5.3,0,10.5,0,15.8c2.4,0,4.7,0,7.1,0c0-5.3,0-10.5,0-15.8c1.4,0,2.7,0,4.1,0.1 c-0.1,5.3,0,10.6,0,15.9c0.7,0,2.1,0,2.8,0c0,2.9,0,5.9,0,8.9c-1.3-0.1-2.7-0.2-4-0.3c0-1.8,0.1-3.6,0.1-5.4c-4.7,0-9.4,0-14.1,0 C60.3,121.1,60.3,114.7,60.3,108.3z"></path> <path d="M85.3,108.3c3.7,0,7.3,0,11,0c0,1.1,0,2.2,0,3.3c-2.3,0-4.6,0-6.9,0c-0.1,1.4-0.1,2.8-0.2,4.2c2.2,0,4.4,0,6.6,0 c0,0.8,0,2.5,0,3.3c-2.2,0-4.3,0-6.4-0.1c0,1.7-0.1,3.3-0.1,5c2.3,0,4.7,0,7.1,0.1c0,1.1-0.1,2.2-0.1,3.3c-3.7,0-7.3,0-11,0 C85.3,121.1,85.3,114.7,85.3,108.3z"></path> <path d="M104.3,108.3c1.3,0,2.7,0,4.1,0c0,2.5,0,5,0,7.5c2.5,0,5.1,0,7.6-0.1c0-2.5,0-5,0.1-7.5c1.3,0,2.6,0,3.9,0 c0,6.4,0.1,12.8,0,19.2c-1.3,0-2.6,0-3.8,0c-0.2-2.8-0.2-5.5-0.2-8.3c-2.5,0-5.1,0-7.6,0c0,2.7,0,5.5,0,8.2c-1,0-3,0.1-4,0.1 C104.2,121.2,104.3,114.8,104.3,108.3z"></path> <g> <path d="M133.5,108.6c4.2-1.4,10.1-0.4,11.9,4.2c1.7,4.4,1.4,10.7-2.9,13.6c-4.4,2.5-11.4,1.7-13.5-3.5 C127.1,118.1,127.8,110.6,133.5,108.6z M134.4,112.2c-3.7,3.4-2.8,13,3.7,12.1c4.3-0.6,4.5-6.1,3.6-9.4 C141.1,111.6,136.9,110.5,134.4,112.2z"></path> </g> <path d="M154.2,108.3c4,0,8.1,0,12.1,0c0,1.1,0,2.2,0,3.3c-2.7,0-5.4,0-8.1,0c0,5.2,0,10.4,0.1,15.7c-1.4,0-2.7,0.1-4.1,0.2 C154.1,121.2,154.2,114.8,154.2,108.3z"></path> <g> <path d="M173.3,108.3c3.2,0.1,6.6-0.4,9.7,0.6c4.4,1.5,4.6,8.4,0.9,10.7c-1.9,1.3-4.3,1-6.5,1.2c0,2.2,0,4.5,0,6.7 c-1,0-3,0.1-4,0.1C173.2,121.2,173.3,114.8,173.3,108.3z M177.4,111.6c0,2,0,4,0,6c2.1-0.2,5.4-0.5,5-3.4 C182.4,111.5,179.2,111.7,177.4,111.6z"></path> </g> <g> <path d="M198.5,108.3c1.7,0,3.4,0,5,0c2.2,6.4,4.5,12.8,6.8,19.2c-1.5,0-3,0-4.5-0.1c-0.4-1.5-0.8-2.9-1.1-4.4 c-2.4-0.2-4.8-0.2-7.2,0c-0.4,1.5-0.8,3-1.3,4.4c-1.5,0-2.9,0-4.4,0C194,121.1,196.3,114.7,198.5,108.3z M200.9,111.8 c-0.8,2.6-1.6,5.1-2.3,7.7c1.6,0,3.3,0,4.9,0C202.7,116.9,202,114.3,200.9,111.8z"></path> </g> <g> <path d="M224.2,108c1.2,0.1,2.4,0.1,3.5,0.2c0,0.5-0.1,1.6-0.2,2.1c2.1,0.4,4.4,0.5,6.1,1.9c3.4,2.6,3.2,8.7-0.4,11.1 c-1.6,1.2-3.7,1.3-5.6,1.7c0,0.7,0,2.1,0,2.8c-1.2,0-2.4,0.1-3.5,0.1c0-0.7-0.1-2.1-0.1-2.9c-2.1-0.4-4.3-0.6-6-1.9 c-3.4-2.6-3.4-8.5,0.1-10.9c1.6-1.3,3.8-1.4,5.8-1.7C223.9,109.8,224.1,108.6,224.2,108z M219.3,117.9c-0.1,2.6,2.6,3.4,4.5,4 c0.2-2.8,0.2-5.7,0.1-8.5C221.6,113.7,218.8,115.1,219.3,117.9z M227.6,113.4c-0.1,2.8-0.1,5.6,0,8.4c2.1-0.3,4.6-1.3,4.7-3.8 C232.9,115.2,230,113.7,227.6,113.4z"></path> </g> <path d="M242.2,108.4c2.9,0,5.8,0,8.7-0.1c0,0.6,0,1.8,0,2.4c-0.6,0.3-1.7,0.8-2.3,1c0,4.1,0,8.2,0,12.3c1.5,0.6,2.7,1.6,2.6,3.4 c-3,0-6.1,0-9.1,0.1c-0.2-1.8,0.6-3,2.4-3.4c0.1-4.2,0.1-8.3,0-12.5c-0.6-0.2-1.7-0.7-2.3-0.9C242.3,110.1,242.2,108.9,242.2,108.4 z"></path> <path d="M256.4,108.4c3,0,6.1,0,9.1,0c0.1,1.8-1.2,2.7-2.5,3.6c-0.3,4,0,8-0.1,12c1.5,0.6,2.8,1.5,2.5,3.5c-3,0-6,0-9.1,0 c-0.3-1.9,1-2.8,2.5-3.5c0-4.1,0-8.1,0-12.2C257.4,111.2,256.2,110.3,256.4,108.4z"></path> <path d="M683.7,111.6c3.6-4.5,12.7-3.1,13.4,3.1c-1.3,0-2.6,0.1-3.9,0.1c-0.5-3.2-6.8-3.6-6.2,0.2c2.6,1.7,6,1.5,8.6,3.3 c2.4,1.7,2.3,5.7,0.2,7.7c-4.4,3.8-13.5,2.2-13.9-4.4c1.2,0,2.4-0.1,3.7-0.1c1.1,3,5.6,4.7,7.6,1.5c-0.3-3.3-4.9-2.6-7.2-4 C683,118.2,681.8,114.1,683.7,111.6z"></path> <path d="M703.6,116.1c1.2-5.1,7.1-8.4,12.1-6.6c2.9,0.8,4.8,3.3,6.1,5.9c-1.5,0-3,0-4.5-0.1c-1.7-2.4-5.1-3.5-7.6-1.6 c-3.5,2.4-2.8,8.6,1.3,10c2.5,1.1,4.9-0.6,6.5-2.4c1.4,0,2.9,0,4.3,0.1c-1.7,3.8-5.4,6.8-9.8,6.3 C706.4,127.5,702.1,121.5,703.6,116.1z"></path> <path d="M727.9,109.2c3.5,0,7,0,10.5,0c0,1.2,0,2.4,0,3.6c-2.2,0-4.4,0-6.6,0c0,0.9,0,2.7,0,3.6c2,0,4,0,6.1-0.1 c0.1,1.2,0.2,2.4,0.3,3.7c-2.2,0-4.3,0-6.5,0c0.1,1.2,0.1,2.4,0.2,3.6c2.1,0.1,4.3,0.1,6.4,0.1c0,0.9,0,2.7,0,3.7 c-3.5,0-7,0-10.6,0C727.9,121.4,727.8,115.3,727.9,109.2z"></path> <path d="M756.1,109.2c1.3,0,2.6,0,3.9,0c0.1,6.1,0,12.2,0,18.2c-1.4,0-2.7,0-4,0c-2.3-3.7-3.8-7.9-6.6-11.2 c0.5,3.7,0.4,7.5,0.3,11.3c-1,0-3,0-4,0c0-6.1,0-12.2,0-18.2c1.4,0,2.7,0,4.1,0.1c2,3.7,4,7.4,6.1,11 C756.1,116.6,756,112.9,756.1,109.2z"></path> <g> <path d="M774.1,109.2c6.9-1.7,13.6,6.3,10.4,12.8c-2.4,6.1-11.2,7.7-15.4,2.6C764,119.7,767.3,110.4,774.1,109.2z M773.5,113.7 c-3.6,1.7-3.8,7.3-0.3,9.2c3.4,2.5,8.5-0.8,8.1-4.9C781.1,114.4,776.7,111.7,773.5,113.7z"></path> </g> <path d="M794.7,111.5c4.7-4.7,13.3-2.3,15.3,3.9c-1,0-3-0.1-4-0.1c-1.5-1-2.9-2.8-5-2.5c-4.5,0-6.9,6-4,9.3 c2.3,3.3,7.7,2.4,9.3-1.2c-1.6-0.1-3.3-0.1-4.8-0.1c0-0.8,0-2.3,0-3c3,0,6.1,0,9.1,0c0.3,6.4-6.4,11.8-12.5,9.5 C791.4,125.3,789.4,115.9,794.7,111.5z"></path> <g> <path d="M817,109.2c3.8,0.4,8.7-1.2,11.3,2.4c2.4,3.3,0.7,7.9-2.9,9.4c1.7,2.2,3.4,4.4,5.2,6.5c-1.7,0-3.4,0-5.2,0 c-1.4-2.2-2.9-4.3-4.3-6.4c-0.1,2.1-0.1,4.3-0.1,6.4c-1.3,0-2.7,0-4,0C817,121.4,816.9,115.3,817,109.2z M821.2,112.1 c-0.1,1.9-0.2,3.9-0.1,5.8c1.8,0,4.6-0.3,4.5-2.8C825.8,112.7,823,112.3,821.2,112.1z"></path> </g> <g> <path d="M841.6,109.3c1.1-0.1,2.2-0.1,3.3-0.1c2.6,6.1,5,12.2,7.5,18.3c-1.5,0-2.9,0-4.4-0.1c-0.4-1.2-0.8-2.4-1.2-3.6 c-2.3,0-4.7,0-7,0c-0.5,1.3-1,2.5-1.5,3.8c-1,0-3.1-0.1-4.1-0.1C836.7,121.4,839.2,115.4,841.6,109.3z M843.4,114 c-0.8,2.2-1.5,4.3-2.3,6.5c1.5,0,3,0,4.6,0C844.9,118.3,844.1,116.2,843.4,114z"></path> </g> <g> <path d="M858.2,109.3c2.9,0.1,6-0.4,8.9,0.4c4,1.5,4.8,7.4,1.5,10.1c-1.8,1.6-4.3,1.2-6.4,1.4c0,2.1,0,4.3,0.1,6.4 c-1.4,0-2.7,0-4.1-0.1C858.3,121.4,858.2,115.3,858.2,109.3z M862.3,112.3c0,1.9,0,3.8,0,5.7c1.9,0,4.9-0.3,4.5-3 C866.9,112.5,864.1,112.4,862.3,112.3z"></path> </g> <path d="M876.8,109.2c1.3,0,2.6,0,4,0c0,2.4,0,4.8,0,7.2c2,0,4,0,6,0c0-2.4,0-4.8,0-7.2c1.4,0,2.8-0.1,4.2-0.1 c0.1,6.1,0.2,12.3-0.1,18.4c-1.4-0.1-2.8-0.1-4.2-0.2c0-2.4,0-4.8,0-7.2c-2,0-4,0-6,0.1c0,2.4,0,4.8,0,7.3c-1,0-3,0-4,0 C876.7,121.4,876.7,115.3,876.8,109.2z"></path> <path d="M896.9,109.2c1.6,0,3.2,0,4.8,0c1.3,2.1,2.6,4.2,3.8,6.3c1.4-2.1,2.7-4.1,4-6.2c1.6,0,3.2-0.1,4.8-0.1 c-2.1,3.3-4.5,6.4-6.7,9.6c0,2.9,0,5.8,0,8.7c-1,0-3-0.1-4-0.1c-0.1-3,0.3-6-0.2-8.9C901.3,115.4,898.9,112.4,896.9,109.2z"></path> </g> <g> <path class="st4" d="M560.9,98.3c18.7,0,37.3,0.1,56,0c0.1,2.5,0.1,5,0,7.4c-18.7-0.1-37.3-0.1-56,0 C560.8,103.2,560.7,100.8,560.9,98.3z"></path> </g> <rect x="8" y="-2" class="st5" width="944" height="206"></rect> </svg> 